<svg width="14" height="14" viewBox="0 0 14 14" fill="none" xmlns="http://www.w3.org/2000/svg">
<path fill-rule="evenodd" clip-rule="evenodd" d="M12.5993 10.806C12.5981 10.7998 12.5957 10.789 12.5912 10.7733C12.5803 10.7346 12.5632 10.6876 12.5421 10.6374C12.5359 10.6227 12.5296 10.6083 12.5235 10.5946C12.0786 10.2896 11.1926 9.85981 10.3983 9.67018C9.44564 9.44275 8.27446 9.30597 7 9.30597C5.72554 9.30597 4.55436 9.44275 3.60165 9.67018C2.80039 9.86146 1.90574 10.2972 1.46485 10.6027C1.46081 10.6112 1.45672 10.6201 1.45265 10.6293C1.43468 10.6699 1.41999 10.7096 1.41039 10.7447C1.40121 10.7783 1.4001 10.7952 1.39998 10.7972C1.39997 10.7973 1.39998 10.7972 1.39998 10.7972C1.39998 10.806 1.40361 10.9154 1.63966 11.1096C1.87088 11.2997 2.24774 11.5022 2.77516 11.6856C3.82345 12.0502 5.31715 12.2886 7 12.2886C8.68285 12.2886 10.1765 12.0502 11.2248 11.6856C11.7523 11.5022 12.1291 11.2997 12.3603 11.1096C12.5652 10.941 12.595 10.8365 12.5993 10.806ZM0.333082 9.75764L6.109 0.494442C6.52008 -0.164811 7.47992 -0.164815 7.891 0.494442L13.6687 9.76051C13.6749 9.77039 13.6808 9.78039 13.6864 9.79058L13.0747 10.1309C13.6864 9.79058 13.6864 9.79047 13.6864 9.79058L13.6868 9.79131L13.6873 9.79219L13.6886 9.79443L13.692 9.80069C13.6947 9.80566 13.6982 9.81217 13.7024 9.82012C13.7109 9.83594 13.7222 9.85764 13.7354 9.88403C13.7617 9.93629 13.7969 10.0097 13.8326 10.0947C13.8916 10.2348 14 10.5145 14 10.7973C14 11.3935 13.6511 11.8607 13.2496 12.1909C12.8432 12.5251 12.2974 12.7948 11.6848 13.0079C10.4529 13.4364 8.79656 13.6886 7 13.6886C5.20344 13.6886 3.54709 13.4364 2.31522 13.0079C1.70259 12.7948 1.15682 12.5251 0.750428 12.1909C0.348892 11.8607 -4.61879e-05 11.3935 -4.61879e-05 10.7973C-4.61879e-05 10.4939 0.102382 10.2208 0.172582 10.0623C0.211271 9.975 0.249677 9.9017 0.278864 9.84945C0.293602 9.82302 0.306374 9.80129 0.316184 9.78505C0.321098 9.77689 0.325298 9.77007 0.328665 9.76468L0.331276 9.76051L0.333082 9.75764ZM11.1954 8.43996L7 1.7115L2.80456 8.43996C2.96311 8.38987 3.12124 8.34553 3.27657 8.30843C4.34982 8.05219 5.63153 7.90596 7 7.90596C8.36847 7.90596 9.65018 8.05219 10.7234 8.30843C10.8787 8.34553 11.0369 8.38987 11.1954 8.43996Z" fill="white"/>
</svg>
