<svg width="24" height="24" viewBox="0 0 24 24" fill="none" xmlns="http://www.w3.org/2000/svg">
  <rect width="24" height="24" rx="4" fill="#1DA1F2"/>
  <path d="M19 8.309c-.478.212-.993.356-1.533.421a2.658 2.658 0 0 0 1.163-1.465 5.316 5.316 0 0 1-1.684.644A2.654 2.654 0 0 0 12 10.657c0 .208.023.41.068.604A7.53 7.53 0 0 1 5.5 7.797a2.653 2.653 0 0 0 .822 3.54 2.64 2.64 0 0 1-1.202-.332v.033a2.655 2.655 0 0 0 2.13 2.601 2.67 2.67 0 0 1-1.197.045 2.657 2.657 0 0 0 2.48 1.844A5.33 5.33 0 0 1 5 17.027a7.527 7.527 0 0 0 4.073 1.194c4.89 0 7.57-4.05 7.57-7.57 0-.115-.003-.23-.008-.344A5.41 5.41 0 0 0 19 8.309z" fill="white"/>
</svg> 