<?xml version="1.0" standalone="no"?>
<!DOCTYPE svg PUBLIC "-//W3C//DTD SVG 20010904//EN"
 "http://www.w3.org/TR/2001/REC-SVG-20010904/DTD/svg10.dtd">
<svg version="1.0" xmlns="http://www.w3.org/2000/svg"
 width="1024.000000pt" height="1024.000000pt" viewBox="0 0 1024.000000 1024.000000"
 preserveAspectRatio="xMidYMid meet">

<g transform="translate(0.000000,1024.000000) scale(0.100000,-0.100000)"
fill="#000000" stroke="none">
<path d="M5819 9320 c-13 -10 -19 -19 -12 -20 11 0 43 26 43 36 0 8 -8 4 -31
-16z"/>
<path d="M4825 9140 c-4 -6 -10 -8 -15 -5 -18 11 -20 -16 -4 -66 22 -65 52
-107 207 -277 37 -42 67 -79 67 -83 0 -5 -9 -13 -20 -19 -33 -18 -23 -31 19
-24 l39 6 137 -141 c137 -141 197 -219 227 -298 l16 -43 -27 -19 c-41 -30
-181 -91 -181 -80 0 5 -12 2 -27 -8 -24 -14 -26 -14 -13 0 8 9 53 37 100 62
77 42 137 83 85 58 -191 -94 -259 -118 -305 -111 l-22 3 26 37 c18 27 22 39
13 44 -7 4 -9 4 -5 -1 8 -9 -20 -40 -29 -31 -3 3 -24 -8 -47 -25 -23 -16 -42
-25 -44 -19 -3 7 -9 4 -16 -5 -11 -15 -33 -4 -202 100 -221 137 -255 155 -287
155 -31 0 -44 36 -17 45 21 7 72 -14 64 -26 -3 -5 3 -6 12 -2 15 5 12 9 -13
21 -20 9 -31 22 -30 33 1 14 4 15 14 7 10 -8 13 -5 13 15 0 17 -7 27 -22 32
l-23 7 25 7 25 8 -30 9 c-50 15 -457 9 -580 -9 -109 -15 -133 -14 -105 3 10 7
11 10 3 10 -19 0 -16 18 5 23 16 4 16 5 0 6 -21 1 -23 12 -5 30 10 11 10 14 0
18 -7 3 -13 13 -13 24 0 13 -7 19 -22 19 -19 0 -20 2 -8 10 28 18 -14 11 -152
-24 -342 -89 -627 -217 -873 -394 -140 -101 -328 -282 -311 -299 3 -4 6 -1 6
7 0 10 3 10 16 0 8 -8 14 -9 12 -4 -2 5 2 9 7 9 6 0 9 -4 7 -10 -2 -5 5 -2 15
8 15 13 22 14 32 4 10 -9 11 -8 5 6 -5 13 -2 16 12 10 12 -4 15 -3 10 6 -5 7
-14 10 -22 7 -9 -3 -11 1 -8 12 3 9 -2 5 -11 -10 -18 -33 -19 -33 -36 -12 -11
14 -10 15 7 12 13 -2 19 3 19 14 0 10 6 23 14 30 9 8 11 9 7 1 -13 -23 14 -24
36 -1 13 13 22 22 20 19 -1 -2 6 -13 15 -24 10 -11 12 -17 5 -13 -7 4 -15 1
-18 -9 -5 -12 -9 -13 -20 -4 -9 8 -14 8 -14 1 0 -6 5 -14 11 -17 7 -5 2 -16
-12 -31 -17 -18 -25 -21 -32 -12 -6 9 -7 7 -3 -5 4 -12 -3 -30 -18 -48 -43
-51 -131 -201 -169 -289 -72 -166 -94 -268 -99 -455 l-3 -129 80 -43 c44 -23
86 -40 93 -38 7 3 11 1 8 -4 -3 -5 11 -17 32 -26 20 -9 49 -23 65 -30 15 -8
27 -9 27 -4 0 5 -6 9 -12 9 -8 0 -9 3 -3 8 6 4 10 66 11 147 l0 140 47 139
c68 198 119 279 282 441 180 181 344 287 570 367 283 101 502 134 936 140 139
2 146 3 135 20 -13 22 -28 24 -20 3 4 -8 2 -15 -4 -15 -5 0 -12 9 -15 20 -3
11 -1 18 4 14 5 -3 9 0 9 6 0 6 13 1 29 -12 22 -18 26 -27 19 -41 -5 -9 -5
-17 -1 -16 27 5 49 -6 88 -42 25 -23 45 -44 45 -48 0 -3 -13 -15 -29 -26 -39
-26 -34 -29 19 -10 l43 15 63 -56 c35 -31 64 -59 64 -64 0 -20 -263 -219 -485
-367 -27 -18 -47 -33 -43 -33 4 0 44 14 90 31 314 116 515 187 658 230 141 43
184 51 300 60 187 14 331 48 447 104 92 45 94 45 118 28 30 -22 31 -31 3 -60
-30 -32 -11 -29 45 7 26 17 52 30 57 30 5 0 51 -21 102 -46 81 -39 100 -45
143 -41 28 2 72 13 99 26 49 21 49 22 28 37 -43 30 -68 109 -52 165 5 18 9 34
7 35 -1 1 -31 -7 -66 -19 l-64 -21 -28 32 c-36 40 -37 72 -2 103 20 18 24 19
13 4 -14 -19 -14 -19 3 -6 9 7 17 20 17 28 0 8 5 11 10 8 6 -3 10 -2 10 3 0 5
17 21 38 34 20 14 124 82 230 153 182 119 346 255 329 271 -3 4 -12 2 -19 -3
-7 -6 -38 -18 -68 -28 -30 -10 -81 -30 -112 -45 -31 -15 -60 -25 -63 -22 -7 7
-75 11 -98 5 -9 -2 -15 -9 -12 -14 3 -5 -1 -6 -9 -3 -8 3 -48 -11 -88 -32 -99
-51 -379 -213 -401 -233 -17 -14 -21 -14 -49 2 -30 17 -32 17 -67 -8 -48 -33
-74 -32 -104 5 -40 47 -51 91 -33 134 12 30 12 34 0 29 -8 -3 -14 -9 -14 -13
0 -5 -14 -12 -32 -15 -31 -7 -53 -17 -89 -40 -8 -5 -2 2 15 17 16 15 28 29 25
31 -2 2 -26 16 -54 32 -113 65 -539 379 -655 484 -88 79 -97 85 -105 71z
m-330 -809 c3 -5 2 -12 -3 -15 -5 -3 -9 1 -9 9 0 17 3 19 12 6z m481 -336
c-11 -8 -27 -15 -35 -14 -9 0 -2 7 14 14 39 18 45 18 21 0z"/>
<path d="M6612 8930 c-36 -8 -60 -26 -49 -36 3 -3 30 1 59 9 29 9 71 20 93 25
l40 10 -55 0 c-30 0 -70 -4 -88 -8z"/>
<path d="M6300 8801 c0 -6 5 -13 10 -16 6 -3 10 1 10 9 0 9 -4 16 -10 16 -5 0
-10 -4 -10 -9z"/>
<path d="M6240 8760 c0 -19 3 -21 12 -12 9 9 9 15 0 24 -9 9 -12 7 -12 -12z"/>
<path d="M6200 8739 c0 -11 4 -18 10 -14 5 3 7 12 3 20 -7 21 -13 19 -13 -6z"/>
<path d="M6160 8721 c0 -12 5 -21 10 -21 6 0 10 6 10 14 0 8 -4 18 -10 21 -5
3 -10 -3 -10 -14z"/>
<path d="M6106 8697 c3 -10 9 -15 12 -12 3 3 0 11 -7 18 -10 9 -11 8 -5 -6z"/>
<path d="M6080 8676 c0 -9 5 -16 10 -16 6 0 10 4 10 9 0 6 -4 13 -10 16 -5 3
-10 -1 -10 -9z"/>
<path d="M6040 8663 c0 -13 5 -23 10 -23 13 0 13 11 0 30 -8 12 -10 11 -10 -7z"/>
<path d="M3888 8663 c6 -2 18 -2 25 0 6 3 1 5 -13 5 -14 0 -19 -2 -12 -5z"/>
<path d="M3838 8653 c7 -3 16 -2 19 1 4 3 -2 6 -13 5 -11 0 -14 -3 -6 -6z"/>
<path d="M6000 8643 c0 -5 5 -15 10 -23 8 -12 10 -11 10 8 0 12 -4 22 -10 22
-5 0 -10 -3 -10 -7z"/>
<path d="M5920 8597 c0 -19 16 -31 24 -18 3 5 -1 14 -9 21 -12 10 -15 10 -15
-3z"/>
<path d="M5800 8565 c-27 -29 -29 -84 -5 -121 20 -31 39 -30 64 2 25 32 27 76
4 115 -21 35 -33 36 -63 4z"/>
<path d="M2610 8440 c-9 -6 -10 -10 -3 -10 6 0 15 5 18 10 8 12 4 12 -15 0z"/>
<path d="M2527 8375 c-15 -14 -24 -25 -19 -25 5 0 19 11 32 25 30 32 23 32
-13 0z"/>
<path d="M4503 8375 c0 -9 4 -14 9 -13 5 2 10 8 10 13 0 5 -5 11 -10 13 -5 1
-9 -4 -9 -13z"/>
<path d="M4590 8346 c0 -2 7 -7 16 -10 8 -3 12 -2 9 4 -6 10 -25 14 -25 6z"/>
<path d="M5375 8330 c-4 -6 1 -7 12 -3 16 6 17 5 3 -13 -14 -18 -14 -18 3 -5
9 7 17 17 17 22 0 12 -27 11 -35 -1z"/>
<path d="M8482 8282 c-13 -35 -21 -66 -18 -69 3 -4 6 -1 6 6 0 7 9 26 21 42
12 17 19 40 17 56 -2 24 -7 18 -26 -35z"/>
<path d="M2378 8243 c-108 -104 -248 -270 -247 -292 0 -13 2 -13 12 3 7 10 23
33 37 50 14 18 34 46 45 62 11 16 74 82 139 147 66 64 116 117 112 117 -4 0
-48 -39 -98 -87z"/>
<path d="M5356 8307 c3 -10 9 -15 12 -12 3 3 0 11 -7 18 -10 9 -11 8 -5 -6z"/>
<path d="M5320 8301 c0 -5 5 -13 10 -16 6 -3 10 -2 10 4 0 5 -4 13 -10 16 -5
3 -10 2 -10 -4z"/>
<path d="M5280 8285 c0 -5 5 -17 10 -25 5 -8 10 -10 10 -5 0 6 -5 17 -10 25
-5 8 -10 11 -10 5z"/>
<path d="M5260 8261 c0 -5 5 -13 10 -16 6 -3 10 -2 10 4 0 5 -4 13 -10 16 -5
3 -10 2 -10 -4z"/>
<path d="M5226 8227 c3 -10 9 -15 12 -12 3 3 0 11 -7 18 -10 9 -11 8 -5 -6z"/>
<path d="M6410 8161 c-27 -51 5 -143 44 -128 38 15 43 91 9 130 -21 22 -40 22
-53 -2z"/>
<path d="M8316 8095 c-3 -8 -16 -15 -30 -15 -16 0 -27 -7 -31 -20 -4 -11 -10
-18 -15 -15 -5 3 -12 1 -15 -5 -4 -6 -24 -18 -46 -27 -21 -8 -39 -21 -39 -29
0 -21 50 -17 74 5 33 31 135 81 164 81 25 0 25 1 -11 20 -44 24 -43 24 -51 5z"/>
<path d="M8488 8033 c7 -3 16 -2 19 1 4 3 -2 6 -13 5 -11 0 -14 -3 -6 -6z"/>
<path d="M1403 8005 c-45 -116 -73 -259 -73 -376 0 -29 7 -90 15 -134 9 -44
19 -104 25 -133 5 -30 32 -100 60 -158 47 -96 80 -145 176 -263 l35 -44 68 2
c107 4 177 -35 224 -124 28 -53 27 -134 -1 -198 -19 -43 -20 -48 -4 -43 118
36 309 39 425 7 43 -12 104 -34 136 -50 40 -21 62 -27 72 -20 12 8 12 10 -1 8
-36 -4 -44 2 -21 14 37 18 36 35 -1 52 -18 8 -25 13 -15 10 26 -7 67 5 67 20
0 7 8 16 18 20 16 6 16 7 -1 16 -13 8 -22 7 -33 -1 -10 -9 -14 -9 -14 -1 0 6
5 11 10 11 22 0 8 18 -17 23 -16 4 -95 43 -178 88 -82 45 -164 90 -181 99 -42
22 -94 63 -72 56 10 -3 23 0 30 7 7 7 19 12 26 13 38 3 43 5 37 14 -4 6 -15 8
-25 5 -10 -3 -22 0 -27 8 -13 21 -70 57 -78 49 -5 -4 -5 -1 -1 6 6 9 13 8 34
-6 43 -30 50 -33 56 -23 8 12 -72 63 -86 55 -6 -4 -8 -3 -5 3 9 14 -40 46 -55
37 -6 -4 -8 -3 -5 3 4 6 -10 23 -31 39 -59 44 -180 153 -251 227 -179 186
-305 431 -319 627 -7 79 -8 83 -19 55z m734 -1097 c-3 -8 -6 -5 -6 6 -1 11 2
17 5 13 3 -3 4 -12 1 -19z m323 -371 c12 4 12 3 1 -5 -14 -10 -48 -5 -57 9 -3
5 5 5 18 0 13 -4 30 -6 38 -4z m53 -4 c-7 -2 -19 -2 -25 0 -7 3 -2 5 12 5 14
0 19 -2 13 -5z m18 -30 c-9 -6 -22 -8 -31 -3 -8 4 -22 10 -30 13 -8 2 6 4 31
3 38 -1 43 -3 30 -13z"/>
<path d="M2605 8009 c-10 -15 3 -25 16 -12 7 7 7 13 1 17 -6 3 -14 1 -17 -5z"/>
<path d="M2423 7878 c-16 -24 -33 -50 -37 -58 -4 -8 1 -4 11 10 10 14 27 35
38 46 18 19 30 44 22 44 -2 0 -17 -19 -34 -42z"/>
<path d="M6422 7633 c56 -61 178 -245 178 -268 0 -4 -12 2 -27 13 -75 51 -348
133 -495 147 -82 9 -95 2 -72 -33 12 -18 16 -44 15 -83 -1 -46 2 -60 16 -68
15 -8 12 -10 -15 -7 -45 5 -31 -6 53 -38 75 -30 214 -102 279 -145 47 -31 136
-117 136 -132 0 -6 4 -8 9 -4 5 3 12 1 16 -5 10 -16 35 -12 35 5 0 29 103 -35
242 -150 73 -60 145 -133 110 -111 -7 4 -15 1 -18 -8 -3 -9 -12 -16 -19 -16
-7 0 -15 -5 -17 -12 -7 -20 -63 10 -97 52 -37 47 -53 84 -44 107 4 11 3 14 -5
9 -22 -13 -12 -62 22 -111 19 -27 33 -52 30 -57 -10 -16 -99 4 -122 28 -30 32
-43 30 -40 -5 1 -16 -4 -36 -11 -45 -17 -20 -10 -20 37 -1 40 17 83 14 167
-12 67 -21 158 -67 176 -89 8 -10 9 -15 2 -11 -11 7 -21 -32 -26 -100 -1 -13
-2 -23 -3 -23 -1 0 -18 7 -37 15 -77 32 -137 7 -158 -66 -15 -48 -38 -56 -112
-40 -29 6 -61 13 -72 15 -11 2 -28 7 -38 11 -15 6 -18 4 -15 -12 1 -10 -4 -30
-13 -44 -9 -13 -26 -51 -38 -84 -12 -33 -29 -65 -37 -71 -8 -7 -16 -20 -18
-31 -2 -10 -28 -44 -56 -76 -29 -31 -58 -66 -64 -79 -6 -12 -22 -28 -35 -34
-12 -6 -37 -25 -54 -41 -18 -17 -48 -39 -67 -49 -19 -10 -37 -20 -40 -22 -2
-2 2 -7 10 -12 10 -6 -1 -8 -30 -5 -42 4 -43 3 -21 -9 l25 -14 -31 -6 c-20 -5
-45 -1 -68 8 -21 9 -43 16 -49 16 -21 0 90 -47 199 -84 61 -20 117 -41 125
-47 13 -9 12 -10 -3 -5 -10 3 -53 15 -95 27 -42 12 -86 25 -97 29 -11 4 -45
17 -75 29 -62 23 -96 28 -70 10 12 -9 12 -10 -3 -5 -10 3 -21 6 -23 6 -3 0 -3
4 0 9 4 5 -2 7 -13 4 -10 -3 -22 0 -25 6 -9 14 -26 14 -26 0 0 -5 5 -7 10 -4
6 3 10 1 10 -4 0 -15 -27 -14 -33 2 -3 7 -6 4 -6 -7 -1 -12 -6 -16 -16 -13
-11 5 -13 0 -8 -24 5 -26 3 -29 -13 -23 -11 4 -23 10 -29 14 -5 4 -23 11 -40
15 -16 4 -24 10 -17 12 6 3 12 9 12 15 0 7 -5 7 -13 -1 -8 -6 -17 -8 -21 -4
-4 4 4 13 16 20 22 13 22 13 -7 6 -37 -9 -53 -9 -85 0 -26 8 2 -7 105 -54 33
-15 69 -29 80 -31 11 -1 22 -5 25 -9 16 -17 372 -139 408 -139 8 0 13 -3 9 -6
-3 -3 -30 -1 -59 6 -65 15 -292 86 -333 105 -16 7 -66 25 -110 40 -44 14 -100
36 -125 49 -25 12 -65 28 -90 35 -65 20 -99 34 -95 41 2 4 -15 15 -38 25 -23
10 -62 28 -87 39 -25 11 -48 19 -52 18 -5 -1 -8 2 -8 7 0 5 -18 16 -40 25 -35
14 -45 27 -42 57 1 3 -12 19 -28 34 -37 35 -40 26 -5 -10 14 -14 22 -25 16
-25 -13 0 -52 51 -46 60 7 11 -26 80 -37 80 -4 0 -8 14 -8 32 0 17 -7 40 -17
50 -9 10 -13 21 -9 25 4 4 11 1 16 -7 5 -8 13 -11 17 -6 4 5 2 11 -4 13 -15 5
-17 33 -3 33 6 0 10 6 10 13 0 19 -18 42 -27 34 -4 -5 -1 -12 6 -16 9 -6 10
-11 2 -15 -6 -4 -11 -2 -11 5 0 8 -12 10 -37 6 l-38 -6 25 20 c18 15 10 13
-29 -8 -75 -39 -90 -62 -97 -158 -6 -72 -33 -157 -54 -170 -4 -2 -15 35 -24
83 -13 70 -22 91 -43 109 -42 35 -108 48 -243 48 -122 0 -127 -1 -192 -33 -62
-30 -68 -36 -73 -70 -3 -20 -13 -76 -22 -124 -18 -101 -11 -131 39 -173 22
-19 41 -25 77 -25 51 0 63 8 125 79 26 31 32 33 73 28 25 -2 52 -12 61 -20 14
-14 11 -24 -26 -99 -23 -46 -42 -86 -42 -90 0 -4 24 -10 54 -13 58 -8 113 -35
123 -61 3 -9 0 -45 -7 -80 -15 -79 -8 -109 30 -129 23 -12 34 -13 55 -3 20 9
31 8 50 -2 22 -12 30 -11 62 4 21 10 54 31 74 47 92 72 185 88 294 48 47 -17
80 -21 154 -20 l93 1 62 -46 c33 -26 106 -69 161 -96 136 -69 177 -100 242
-185 34 -46 59 -71 66 -66 76 46 191 124 263 179 128 98 314 266 314 284 0 8
-7 37 -15 64 -8 27 -15 60 -15 73 0 13 29 84 65 158 36 75 65 141 65 148 0 6
-10 45 -21 84 -21 71 -21 74 -4 120 37 97 110 138 199 113 63 -17 110 -48 98
-63 -5 -7 -15 -37 -22 -67 -7 -30 -21 -71 -31 -91 -10 -20 -16 -47 -13 -62 3
-19 0 -27 -10 -27 -8 0 -18 -9 -21 -20 -4 -11 -11 -17 -17 -14 -5 4 -4 -4 2
-17 7 -13 9 -21 5 -17 -10 10 -66 -61 -64 -81 3 -29 -1 -36 -12 -21 -8 12 -9
10 -5 -10 6 -31 -8 -60 -17 -35 -5 11 -3 14 6 9 9 -5 9 -4 0 6 -19 20 -28 4
-15 -26 8 -17 9 -23 1 -19 -13 8 -40 -26 -31 -40 3 -5 -1 -4 -10 3 -22 18 -47
-11 -28 -33 9 -10 9 -15 1 -15 -6 0 -10 -6 -9 -12 2 -8 -7 -12 -21 -12 -14 1
-30 -3 -35 -10 -15 -16 -19 -66 -5 -66 13 0 80 73 159 174 79 100 91 121 84
140 -5 14 -9 15 -15 4 -5 -7 -9 -8 -9 -3 0 6 5 17 10 25 7 12 11 10 18 -10 l9
-24 12 21 c7 14 8 24 1 28 -20 12 -9 43 23 68 70 53 135 227 163 432 14 101
15 138 6 236 -14 134 -47 275 -90 375 -64 151 -205 346 -323 446 -51 43 -211
148 -226 148 -4 0 5 -12 19 -27z m-1547 -1593 c10 -11 16 -20 13 -20 -3 0 -13
9 -23 20 -10 11 -16 20 -13 20 3 0 13 -9 23 -20z m-592 -43 c9 -23 -8 -40 -22
-23 -13 15 -7 36 9 36 4 0 10 -6 13 -13z m659 -15 c9 -7 22 -11 29 -6 7 4 10
3 5 -4 -8 -13 61 -65 196 -147 98 -60 123 -83 51 -46 -57 29 -232 149 -284
195 -24 21 -37 35 -29 31 8 -4 23 -15 32 -23z m-100 -32 c36 -13 71 -38 108
-75 30 -30 63 -55 73 -55 36 0 182 -42 219 -62 54 -31 56 -47 5 -37 -23 5 -76
13 -117 19 -41 5 -86 12 -100 15 -22 5 -22 4 -5 -4 20 -10 20 -10 0 -10 -22
-1 -50 35 -47 59 1 8 -8 20 -20 26 -13 7 -58 31 -101 54 -92 49 -171 63 -211
36 -26 -16 -41 -10 -27 13 12 18 80 40 128 41 23 0 66 -9 95 -20z m484 -192
c-2 -25 2 -37 18 -48 26 -19 143 -67 311 -129 235 -87 276 -104 272 -107 -3
-4 -235 78 -392 138 -181 69 -266 125 -251 164 3 7 14 14 26 14 16 0 19 -5 16
-32z m520 23 c-4 -5 -3 -11 1 -14 5 -2 2 -2 -4 -1 -7 2 -13 -1 -13 -6 0 -6 8
-10 17 -10 14 0 13 -3 -5 -16 -29 -20 -59 -10 -57 19 1 15 8 22 22 22 12 0 25
3 29 8 10 10 16 9 10 -2z m-872 -26 c-4 -8 -8 -15 -10 -15 -2 0 -4 7 -4 15 0
8 4 15 10 15 5 0 7 -7 4 -15z m514 -28 c5 -24 -15 -21 -28 4 -10 18 -9 20 7
17 10 -2 19 -11 21 -21z m1175 8 c-3 -9 -8 -14 -10 -11 -3 3 -2 9 2 15 9 16
15 13 8 -4z m-47 -77 c5 -7 3 -8 -6 -3 -10 6 -12 4 -6 -11 5 -14 4 -16 -5 -7
-6 6 -8 16 -5 22 9 14 13 14 22 -1z m-379 -94 c-3 -3 -12 -4 -19 -1 -8 3 -5 6
6 6 11 1 17 -2 13 -5z m-69 -261 c-2 -10 -10 -18 -18 -18 -8 0 -16 8 -18 18
-2 12 3 17 18 17 15 0 20 -5 18 -17z"/>
<path d="M6583 7606 c10 -8 27 -12 37 -9 13 4 20 0 20 -9 0 -8 15 -22 33 -31
57 -30 163 -101 229 -152 34 -27 66 -49 71 -47 4 1 7 -2 7 -6 0 -5 6 -9 13
-10 40 -3 319 -94 342 -112 6 -4 26 -11 45 -15 19 -5 30 -10 23 -12 -21 -8 -2
-33 26 -33 14 0 33 -5 41 -10 12 -8 10 -10 -10 -10 l-25 -1 25 -10 c16 -7 46
-6 92 1 37 7 118 11 180 10 62 -2 129 -2 148 -1 l35 2 -30 14 -30 13 35 -5
c28 -4 40 0 60 21 47 51 20 136 -44 136 -11 0 -39 9 -61 19 -22 11 -58 26 -80
35 -22 8 -92 35 -155 60 -63 24 -127 49 -142 55 -22 8 -31 7 -44 -6 -13 -13
-17 -14 -24 -3 -7 11 -11 11 -24 1 -24 -20 -19 -38 14 -53 25 -11 27 -14 12
-20 -16 -6 -16 -7 0 -7 11 -1 15 -6 12 -16 -4 -8 -1 -16 5 -16 21 -3 26 -5 94
-38 38 -18 67 -35 64 -37 -2 -3 -42 12 -88 31 -275 118 -803 284 -866 272 -13
-2 -23 0 -23 4 0 5 -8 9 -17 9 -17 -1 -17 -1 0 -14z m1145 -361 c24 -10 41
-19 39 -22 -6 -5 -158 56 -172 69 -9 9 20 -2 133 -47z m92 -45 c8 -5 11 -10 5
-10 -5 0 -17 5 -25 10 -8 5 -10 10 -5 10 6 0 17 -5 25 -10z m-350 -16 c0 -2
-7 -4 -15 -4 -8 0 -15 4 -15 10 0 5 7 7 15 4 8 -4 15 -8 15 -10z"/>
<path d="M4418 7573 c7 -3 16 -2 19 1 4 3 -2 6 -13 5 -11 0 -14 -3 -6 -6z"/>
<path d="M4372 7546 c7 -8 15 -12 17 -11 5 6 -10 25 -20 25 -5 0 -4 -6 3 -14z"/>
<path d="M7317 7549 c7 -7 15 -10 18 -7 3 3 -2 9 -12 12 -14 6 -15 5 -6 -5z"/>
<path d="M4163 7462 c-440 -237 -742 -524 -1002 -955 -23 -38 -41 -41 -41 -6
0 21 -15 26 -24 7 -4 -9 -5 -8 -4 2 2 28 -22 82 -40 88 -7 2 -12 -7 -12 -23 0
-21 -4 -25 -19 -20 -23 7 -86 -49 -75 -67 4 -6 3 -8 -3 -5 -6 4 -19 -13 -29
-36 -10 -23 -21 -44 -24 -47 -15 -14 -113 -339 -130 -435 -11 -60 -24 -127
-29 -149 -9 -37 -8 -39 58 -109 36 -38 129 -120 206 -182 211 -168 240 -203
347 -424 114 -235 177 -344 295 -503 51 -71 90 -128 87 -128 -3 0 -47 31 -97
68 -51 38 -114 84 -142 102 -27 19 -84 61 -126 94 -68 54 -163 127 -299 228
-25 19 -117 85 -205 148 -403 287 -586 467 -659 650 -3 8 -4 3 -2 -12 4 -33
-11 -38 -17 -5 -3 12 -3 3 -2 -21 2 -38 1 -40 -11 -25 -12 16 -13 16 -14 1 0
-9 -5 -18 -12 -20 -14 -5 -15 -47 -6 -164 5 -62 3 -87 -7 -101 -10 -15 -14
-48 -12 -119 l2 -99 -79 2 c-43 2 -84 7 -90 12 -6 5 -37 16 -68 25 -54 15 -72
30 -48 38 6 2 -8 4 -30 4 -23 1 -47 7 -53 14 -9 10 -9 11 2 5 10 -5 12 -4 7 4
-4 6 -12 9 -17 5 -12 -7 -41 15 -33 27 3 5 -3 6 -12 2 -13 -5 -15 -3 -9 7 6 9
4 11 -4 6 -15 -10 -144 119 -189 187 -17 27 -43 79 -58 117 l-26 67 -57 -17
c-113 -36 -216 -72 -226 -80 -5 -4 -28 -13 -50 -20 -78 -25 -148 -62 -190
-101 -23 -21 -45 -37 -48 -34 -4 3 -5 2 -2 -2 6 -8 -14 -33 -27 -33 -6 0 -5 7
2 18 7 9 -9 -5 -34 -33 -26 -27 -61 -79 -79 -115 -17 -36 -35 -67 -38 -70 -24
-20 -36 -216 -19 -325 8 -49 30 -121 58 -185 24 -58 62 -150 83 -205 57 -147
96 -217 153 -278 28 -29 70 -87 94 -128 108 -186 232 -333 316 -372 31 -15 56
-33 56 -41 0 -7 21 -40 46 -72 25 -33 58 -86 73 -120 23 -49 37 -66 74 -87 37
-22 52 -40 78 -95 18 -37 49 -87 69 -112 20 -25 53 -70 75 -100 43 -62 189
-239 280 -340 33 -36 67 -80 75 -96 24 -48 115 -166 165 -214 26 -25 67 -74
91 -110 58 -86 121 -162 161 -195 39 -32 162 -195 185 -246 18 -41 100 -144
136 -173 13 -10 38 -51 56 -90 65 -141 338 -515 419 -575 68 -48 173 -155 193
-194 9 -18 45 -75 79 -127 34 -52 74 -116 89 -142 28 -49 72 -93 143 -143 32
-23 53 -52 93 -131 28 -56 64 -113 78 -127 15 -15 86 -49 157 -78 72 -29 141
-59 155 -68 51 -34 412 -49 610 -27 170 19 256 42 365 96 164 81 227 104 290
105 52 0 60 3 63 20 2 11 8 25 13 31 12 15 58 24 65 13 10 -18 58 -8 103 20
30 18 66 30 101 33 44 5 59 11 82 37 18 20 25 37 21 48 -6 16 -5 16 10 5 21
-18 106 -1 147 28 48 34 161 81 243 100 50 11 88 27 105 42 15 13 48 35 75 49
26 13 50 32 53 42 3 9 10 17 15 17 6 0 7 5 4 10 -3 6 -15 10 -26 10 -17 0 -18
3 -9 20 8 16 21 20 59 20 42 0 57 6 102 40 55 41 62 43 161 40 69 -2 116 13
182 57 27 19 60 36 75 39 14 4 94 39 176 79 125 60 162 74 220 80 53 5 78 14
105 34 45 34 76 51 93 51 7 0 35 14 63 31 27 18 63 36 79 42 17 5 62 30 100
54 141 89 191 116 245 129 66 15 153 55 233 107 31 20 63 37 70 37 7 0 46 19
87 43 96 54 110 80 78 136 l-23 40 41 58 c162 229 210 542 119 773 -47 118
-121 207 -415 495 -157 153 -342 336 -412 405 l-127 126 -78 -44 c-43 -24
-105 -57 -138 -72 -33 -15 -80 -36 -105 -48 -25 -11 -101 -43 -170 -72 -69
-28 -179 -75 -245 -105 -123 -54 -165 -70 -165 -62 0 13 86 146 112 174 19 20
27 36 23 45 -5 7 -5 10 0 6 4 -4 14 -3 22 3 11 10 11 15 1 28 -11 14 -11 14 2
4 12 -9 20 -8 39 7 29 21 37 51 13 43 -14 -4 -15 -3 -2 6 13 9 12 11 -2 16
-14 5 -11 14 18 58 19 28 34 56 34 62 0 5 -6 1 -12 -10 -34 -61 -253 -285
-389 -400 -307 -258 -746 -472 -1234 -604 -66 -18 -128 -37 -137 -42 -10 -5
-26 -9 -35 -10 -10 0 2 -6 27 -13 26 -7 60 -9 80 -4 19 4 74 9 121 12 48 3 98
10 110 14 13 5 60 12 103 16 44 4 87 11 95 16 9 4 34 11 56 14 22 4 44 11 49
16 6 6 19 10 29 10 10 0 33 6 50 14 44 20 123 35 137 26 17 -11 -21 -22 -46
-14 -14 4 -15 3 -5 -4 16 -12 -3 -27 -21 -16 -8 4 -9 3 -5 -2 11 -11 -153 -68
-333 -115 -241 -63 -665 -108 -757 -81 -20 7 -21 8 -4 27 9 11 38 39 64 63 25
23 41 42 35 42 -30 0 10 14 128 44 421 109 888 362 1289 696 178 149 497 503
479 532 -4 6 -2 8 4 5 6 -4 24 16 42 45 18 29 26 47 18 40 -13 -11 -15 -9 -14
15 2 35 14 55 28 47 7 -4 8 -2 4 4 -4 6 13 44 37 84 117 193 222 423 272 593
14 48 24 89 22 91 -4 4 -143 -38 -300 -92 -76 -26 -141 -44 -144 -40 -11 11
27 72 66 108 113 104 294 250 410 331 39 27 39 27 48 115 4 48 8 200 8 337 -1
218 -4 265 -24 365 -28 145 -71 300 -82 300 -5 0 -12 18 -15 40 -4 22 -10 37
-14 35 -5 -3 -6 4 -3 16 4 14 0 22 -15 25 -14 4 -18 12 -15 25 4 14 1 18 -10
13 -9 -3 -15 0 -14 8 0 7 -1 22 -2 33 -1 17 -3 18 -12 5 -9 -12 -10 -12 -5 4
4 10 -2 32 -13 50 -11 17 -27 51 -37 76 -17 44 -64 122 -102 169 l-20 24 3
-27 c2 -14 17 -54 33 -89 57 -121 70 -153 102 -257 63 -203 97 -446 85 -605
-30 -414 -159 -735 -428 -1069 -45 -56 -86 -106 -92 -112 -5 -6 -48 -52 -95
-103 -69 -77 -175 -174 -316 -291 -105 -87 -411 -281 -595 -378 -108 -56 -370
-174 -376 -169 -1 2 7 9 20 15 29 14 190 89 219 102 13 6 48 24 78 41 30 17
81 44 112 60 57 30 91 59 52 46 -18 -7 -18 -7 0 8 13 10 22 11 26 5 4 -7 12
-5 21 6 13 15 11 17 -19 12 -22 -3 -32 -1 -32 9 0 7 5 13 10 13 17 0 11 18 -7
23 -10 3 -5 5 12 6 17 1 25 4 18 9 -16 10 -21 94 -5 100 17 5 15 23 -5 37 -14
10 -22 9 -45 -8 -15 -11 -31 -17 -35 -12 -5 4 -3 10 4 12 7 2 29 16 49 29 27
19 39 22 50 14 17 -15 34 -4 29 19 -2 13 8 27 34 44 65 43 284 222 346 283
116 115 221 231 291 324 96 129 176 250 164 250 -6 0 -10 -4 -10 -8 0 -9 -132
-197 -177 -252 -91 -111 -322 -340 -423 -419 -36 -27 -78 -60 -94 -73 -16 -12
-27 -17 -25 -11 2 6 47 44 99 84 111 85 346 318 444 439 37 47 96 126 129 177
42 63 64 88 70 80 6 -8 7 -6 3 6 -6 18 21 83 31 74 2 -3 0 -14 -6 -25 -6 -12
-11 -24 -11 -29 1 -4 8 4 16 20 8 15 12 32 9 37 -3 5 14 49 39 98 46 92 119
288 113 305 -2 6 -11 -12 -21 -39 -10 -27 -50 -110 -88 -185 -113 -225 -264
-424 -501 -660 -103 -102 -156 -148 -166 -144 -9 3 -12 3 -8 -1 4 -4 -3 -18
-15 -31 -22 -24 -45 -32 -32 -11 4 7 3 8 -5 4 -6 -4 -9 -11 -6 -15 2 -5 -6
-18 -19 -30 -16 -15 -26 -19 -31 -11 -9 14 14 42 28 33 5 -3 7 -1 4 4 -4 6 0
16 8 23 8 7 12 17 8 22 -3 6 0 9 7 6 13 -4 48 23 52 40 4 14 23 30 31 25 4 -2
7 1 7 7 0 13 36 61 45 60 12 -1 80 79 76 91 -2 8 2 10 13 6 9 -4 15 -3 12 2
-3 4 11 25 31 47 19 21 35 41 34 44 -3 10 44 60 56 60 6 0 15 5 19 12 5 7 3 8
-7 3 -8 -5 -2 7 14 26 15 18 35 50 45 68 9 19 36 54 60 78 24 24 40 48 37 53
-3 6 -2 10 2 10 9 0 57 74 59 90 1 6 2 14 3 20 0 5 6 9 13 7 6 -1 20 14 29 34
10 19 24 41 33 48 9 8 16 20 16 28 0 8 5 11 12 7 6 -4 8 -3 5 3 -4 6 0 24 8
39 8 16 15 43 15 59 1 34 20 65 41 66 8 0 5 4 -6 9 -11 5 -15 9 -9 9 6 1 14
15 18 32 3 17 9 28 14 25 4 -2 12 11 18 30 6 19 7 34 3 34 -4 0 -3 13 2 29 8
21 7 35 0 48 -9 15 -10 13 -5 -12 4 -23 3 -26 -5 -15 -8 11 -11 11 -12 3 -3
-22 -4 -26 -42 -107 -20 -43 -37 -80 -37 -82 0 -2 -31 -55 -69 -116 -131 -213
-362 -470 -593 -661 -328 -272 -800 -546 -1315 -762 -57 -24 -103 -41 -103
-39 0 3 33 21 73 41 116 57 128 64 133 78 3 8 13 11 22 9 9 -3 5 3 -10 12 -31
21 -35 32 -13 40 27 11 16 27 -12 19 -16 -4 -32 -8 -38 -10 -5 -1 -23 -7 -39
-14 -34 -14 -114 -17 -173 -7 -46 8 -56 15 -44 34 5 9 16 9 42 1 41 -13 164
-13 186 0 15 8 14 10 -5 22 -17 11 -22 24 -22 56 0 35 -5 45 -30 63 -36 26
-73 22 -154 -15 -69 -32 -393 -153 -456 -170 -24 -7 -24 -6 -5 7 11 8 43 23
70 33 28 10 66 27 85 38 32 17 32 18 7 13 -15 -4 -51 -17 -80 -30 -28 -13
-113 -49 -187 -81 -74 -31 -173 -75 -220 -97 -47 -22 -101 -46 -120 -53 -55
-20 -257 -114 -452 -210 -70 -35 -148 -71 -175 -81 -26 -10 -51 -23 -55 -28
-4 -6 -10 -8 -13 -4 -4 3 2 15 13 26 18 18 18 19 -32 14 -48 -4 -50 -3 -31 12
29 23 2 20 -48 -5 -82 -42 -202 -126 -274 -192 -17 -16 -36 -26 -42 -23 -6 4
-11 5 -11 2 0 -14 87 -59 182 -95 128 -48 214 -74 354 -105 111 -25 149 -30
334 -42 94 -6 171 -20 130 -24 -11 -1 -9 -4 4 -9 14 -5 -3 -11 -58 -21 -186
-32 -514 21 -806 129 -217 81 -488 242 -630 375 -252 235 -360 478 -320 715
16 95 84 232 151 306 54 59 194 169 229 180 15 5 36 -4 75 -31 89 -61 88 -60
55 -130 -38 -79 -54 -181 -41 -262 11 -69 32 -118 48 -115 6 1 28 -27 49 -62
51 -88 157 -201 246 -262 145 -100 394 -206 470 -199 19 2 95 35 169 74 230
120 611 289 1034 457 121 48 243 98 270 110 28 13 106 46 175 75 69 29 130 56
135 60 6 4 36 17 68 30 32 12 56 24 55 26 -2 1 -32 -7 -66 -18 -60 -19 -66
-19 -105 -4 -23 8 -62 18 -87 20 -74 8 -163 17 -193 21 -15 2 -25 -1 -21 -6 3
-5 3 -9 1 -9 -2 0 -18 23 -36 50 -37 56 -45 63 -31 23 l10 -28 -21 25 c-39 48
-62 109 -55 152 9 53 28 88 81 148 50 56 60 84 52 137 -12 71 -78 131 -102 93
-11 -17 -73 -2 -137 32 -59 31 -94 70 -133 148 -32 63 -54 80 -106 80 -38 0
-58 8 -105 39 -47 30 -72 40 -121 44 -73 8 -151 43 -211 95 -40 34 -45 43 -58
112 -7 41 -28 136 -46 210 -36 153 -45 151 -47 -11 -1 -81 -4 -98 -18 -103
-28 -11 -36 10 -38 109 -1 53 -5 99 -9 102 -3 4 -6 -2 -6 -12 0 -10 -3 -16 -6
-13 -3 4 2 36 12 74 11 47 14 82 9 118 -11 78 -8 104 23 170 36 76 122 184
241 301 90 88 113 119 69 91 -13 -7 -36 -16 -53 -20 l-30 -6 35 21 c19 11 26
17 15 13 -11 -3 -29 -9 -40 -12 -37 -10 1 24 105 94 98 67 280 149 291 132 6
-9 170 15 211 32 21 8 22 9 3 10 -16 1 -14 4 9 12 21 8 25 13 15 19 -11 7 -9
9 6 9 11 0 47 19 80 41 33 22 78 44 100 50 22 6 69 19 105 29 100 29 176 40
272 40 52 0 88 4 88 10 0 6 40 11 98 11 l97 2 -80 9 c-119 14 -391 3 -513 -21
-228 -45 -424 -111 -600 -202 -60 -31 -92 -43 -88 -33 4 11 1 14 -13 9 -16 -5
-18 -2 -14 15 3 11 12 20 20 20 8 0 11 5 7 11 -4 8 3 10 22 7 16 -3 23 -3 17
-1 -10 3 -10 8 1 19 10 9 13 26 9 49 -4 28 -2 35 10 35 9 0 28 5 44 11 28 11
28 11 6 20 -13 4 -23 13 -23 18 0 6 6 8 14 5 8 -3 17 -1 21 5 3 6 -1 11 -10
11 -24 0 -14 32 14 47 14 6 29 19 34 29 7 12 6 15 -2 10 -6 -4 -16 -4 -23 0
-8 5 -6 10 8 15 12 5 13 8 4 7 -8 0 -88 -39 -177 -86z m157 48 c0 -5 -2 -10
-4 -10 -3 0 -8 5 -11 10 -3 6 -1 10 4 10 6 0 11 -4 11 -10z m-47 -27 c-7 -2
-19 -2 -25 0 -7 3 -2 5 12 5 14 0 19 -2 13 -5z m-98 -292 c3 -5 -5 -13 -17
-17 -12 -3 -28 -13 -36 -20 -16 -17 -42 -18 -42 -3 0 5 4 8 8 5 5 -3 19 6 30
19 22 26 46 32 57 16z m-215 -157 c0 -8 -19 -13 -24 -6 -3 5 1 9 9 9 8 0 15
-2 15 -3z m-839 -601 c-8 -15 -10 -15 -11 -2 0 17 10 32 18 25 2 -3 -1 -13 -7
-23z m-40 -76 c-10 -9 -11 -8 -5 6 3 10 9 15 12 12 3 -3 0 -11 -7 -18z m-48
-122 c-3 -9 -8 -14 -10 -11 -3 3 -2 9 2 15 9 16 15 13 8 -4z m-2233 -818 c0
-2 -11 -18 -25 -36 -58 -80 -54 -190 12 -298 20 -32 36 -63 36 -70 0 -7 3 -11
7 -10 8 2 90 -99 90 -110 0 -4 -10 3 -21 17 l-21 25 14 -25 c9 -14 19 -24 24
-23 14 2 31 -15 91 -96 32 -42 67 -87 80 -101 66 -76 131 -165 126 -173 -3 -6
-1 -7 4 -4 6 4 23 -9 37 -27 30 -40 31 -45 12 -42 -23 3 -47 28 -42 43 3 8 2
12 -3 9 -10 -7 -63 50 -100 109 -37 57 -82 116 -108 142 -13 12 -23 26 -23 30
0 5 -9 14 -20 21 -11 7 -20 17 -20 23 0 5 5 7 12 3 7 -4 8 -3 4 4 -4 6 -14 8
-24 5 -9 -3 -14 -3 -11 1 4 4 -13 28 -38 54 -45 48 -109 149 -144 227 -29 66
-40 136 -27 181 11 41 78 144 78 121z m-64 -406 c15 -28 61 -92 101 -143 41
-51 148 -187 238 -303 90 -115 233 -293 317 -395 85 -102 181 -221 215 -265
34 -44 98 -125 143 -180 212 -258 527 -653 645 -805 72 -92 157 -201 191 -242
33 -40 86 -111 119 -158 32 -47 68 -96 79 -110 12 -13 14 -19 5 -12 -9 7 -49
56 -90 110 -40 53 -108 140 -149 192 -79 99 -219 280 -256 331 -12 17 -34 44
-50 62 -16 18 -67 79 -112 137 -130 164 -173 218 -227 284 -28 33 -90 111
-137 171 -48 61 -111 140 -140 176 -29 37 -71 90 -93 119 -67 88 -136 170
-228 274 -49 55 -103 120 -120 145 -38 56 -112 152 -189 246 -253 309 -313
400 -324 484 -5 32 -3 31 15 -16 10 -28 31 -74 47 -102z m824 115 c0 -8 6 -17
13 -20 10 -5 10 -7 0 -12 -7 -3 -13 -12 -13 -20 0 -19 -6 -18 -30 6 -19 19
-19 21 -2 39 21 23 32 26 32 7z m520 -251 c23 -12 23 -13 2 -19 -12 -4 -26
-22 -33 -44 l-13 -37 -9 33 c-8 24 -16 32 -33 32 -29 0 -31 16 -4 30 12 6 26
23 31 38 l11 27 12 -24 c7 -13 24 -29 36 -36z m2791 -108 c-10 -9 -11 -8 -5 6
3 10 9 15 12 12 3 -3 0 -11 -7 -18z m-3071 -37 c0 -5 -4 -10 -10 -10 -5 0 -10
5 -10 10 0 6 5 10 10 10 6 0 10 -4 10 -10z m1305 -76 c17 -11 32 -40 50 -97
31 -96 110 -281 166 -387 28 -54 36 -77 27 -85 -8 -7 -9 -6 -3 3 4 8 -1 21
-13 32 -11 11 -37 46 -57 79 -21 33 -41 58 -46 55 -5 -3 -6 2 -3 11 4 8 -4 29
-18 48 -13 17 -30 47 -37 64 -7 18 -17 30 -22 27 -5 -3 -6 2 -3 10 3 8 -1 28
-9 43 -44 85 -84 213 -66 213 6 0 21 -7 34 -16z m-2020 -24 c10 -11 16 -20 13
-20 -3 0 -13 9 -23 20 -10 11 -16 20 -13 20 3 0 13 -9 23 -20z m-78 -176 c84
-103 101 -137 83 -159 -15 -18 -34 -9 -26 12 3 8 -15 41 -42 77 -26 34 -58 81
-72 104 -16 26 -32 42 -45 42 -17 0 -17 2 -5 10 8 5 19 8 25 7 5 -2 42 -44 82
-93z m5368 87 c3 -5 -9 -19 -27 -31 l-33 -22 25 22 c14 13 24 27 23 31 -4 12
4 11 12 0z m-5044 -159 c27 -35 38 -57 31 -64 -13 -13 -76 67 -66 84 4 7 4 10
-1 6 -8 -8 -35 9 -35 22 0 23 36 -1 71 -48z m4998 15 c-2 -1 -13 -9 -24 -17
-19 -14 -19 -14 -6 3 7 9 18 17 24 17 6 0 8 -1 6 -3z m-118 -93 c-17 -14 -48
-38 -69 -52 -20 -13 -50 -36 -67 -50 -26 -22 -27 -25 -7 -20 13 4 20 2 16 -4
-3 -5 -17 -7 -30 -4 -27 7 -85 -16 -106 -41 -11 -14 -8 -13 20 1 19 10 36 15
40 12 7 -8 6 -8 -48 -35 -76 -37 -167 -87 -217 -119 -26 -16 -70 -41 -98 -54
-27 -14 -77 -39 -109 -56 -33 -18 -64 -32 -70 -32 -13 0 83 56 256 148 37 19
66 37 64 39 -1 2 -146 -69 -320 -158 -174 -89 -320 -159 -322 -156 -3 3 124
71 283 151 324 163 512 268 688 384 120 79 155 96 96 46z m-4795 -41 c-3 -7 0
-12 7 -10 7 1 11 -4 9 -11 -1 -8 1 -11 6 -8 14 8 55 -41 47 -55 -6 -8 -4 -10
5 -4 10 6 12 4 7 -8 -3 -9 0 -18 9 -21 10 -4 13 -1 9 7 -6 11 7 -3 53 -58 22
-26 68 -92 57 -83 -4 4 -16 3 -26 -3 -17 -9 -18 -7 -9 15 6 18 5 28 -6 36 -7
7 -14 9 -14 4 0 -14 -51 40 -120 127 -38 48 -66 90 -62 95 4 4 2 4 -5 0 -14
-8 -27 10 -18 25 9 14 57 -31 51 -48z m4811 2 c0 -8 -4 -15 -8 -15 -11 0 -20
16 -12 24 11 11 20 7 20 -9z m-4962 -107 c31 -35 81 -100 112 -144 46 -68 53
-85 44 -100 -6 -11 -11 -15 -11 -10 0 5 -7 3 -15 -4 -9 -8 -15 -8 -15 -2 0 6
6 12 13 15 16 6 -11 58 -59 112 -19 22 -55 70 -80 108 -46 67 -60 77 -82 55
-7 -7 -12 -8 -12 -2 0 14 21 34 36 34 7 0 38 -28 69 -62z m3975 52 c0 -5 -4
-10 -10 -10 -5 0 -10 5 -10 10 0 6 5 10 10 10 6 0 10 -4 10 -10z m890 -40 c-8
-5 -22 -9 -30 -9 -10 0 -8 3 5 9 27 12 43 12 25 0z m-1925 -56 c-29 -23 -96
-56 -102 -51 -6 7 47 42 82 55 41 14 43 14 20 -4z m143 -70 c2 -11 -4 -27 -13
-34 -22 -19 -50 9 -40 39 9 29 49 25 53 -5z m2928 -30 c-2 -13 -9 -30 -16 -37
-11 -10 -12 -9 -4 3 6 8 10 27 9 42 0 15 2 25 6 22 4 -2 6 -16 5 -30z m-3858
-19 c-3 -3 -9 2 -12 12 -6 14 -5 15 5 6 7 -7 10 -15 7 -18z m-1762 -24 c1 -12
5 -25 9 -29 5 -4 5 2 2 13 -5 13 1 10 15 -10 13 -16 23 -31 23 -33 0 -2 23
-29 52 -60 35 -37 48 -59 41 -63 -7 -4 -16 -5 -22 -2 -5 3 -6 1 -2 -6 4 -6 11
-9 16 -6 5 3 14 -4 20 -15 6 -11 8 -20 5 -20 -3 0 2 -11 11 -25 9 -14 20 -23
24 -20 5 3 11 1 14 -4 11 -17 -24 -5 -41 15 -17 18 -100 117 -147 174 l-21 25
26 -23 c23 -20 27 -21 33 -7 3 9 2 14 -3 11 -5 -3 -14 1 -21 9 -9 11 -9 15 -1
15 7 0 9 5 6 10 -4 6 -10 8 -14 5 -11 -6 -37 25 -44 53 -3 15 -1 22 6 19 7 -2
13 -14 13 -26z m-5 -48 c13 -16 12 -17 -3 -4 -17 13 -22 21 -14 21 2 0 10 -8
17 -17z m3794 -83 c-3 -5 -12 -10 -18 -10 -7 0 -6 4 3 10 19 12 23 12 15 0z
m-45 -30 c-8 -5 -19 -10 -25 -10 -5 0 -3 5 5 10 8 5 20 10 25 10 6 0 3 -5 -5
-10z m-3757 -154 c104 -135 122 -161 132 -193 13 -46 -15 -20 -101 95 -49 64
-108 140 -131 168 -50 59 -56 79 -18 62 14 -6 67 -66 118 -132z m2997 55 c0
-6 -4 -13 -10 -16 -5 -3 -10 1 -10 9 0 9 5 16 10 16 6 0 10 -4 10 -9z m-2641
-164 c0 -9 -2 -8 -6 1 -2 6 -10 9 -15 6 -7 -4 -8 -2 -4 5 9 13 26 5 25 -12z
m14 -74 c71 -86 155 -197 110 -146 -72 81 -186 223 -179 223 2 0 33 -35 69
-77z m2067 57 c0 -5 -4 -10 -10 -10 -5 0 -10 5 -10 10 0 6 5 10 10 10 6 0 10
-4 10 -10z m-1995 -80 c10 -11 16 -20 13 -20 -3 0 -13 9 -23 20 -10 11 -16 20
-13 20 3 0 13 -9 23 -20z m56 -67 c13 -16 12 -17 -3 -4 -10 7 -18 15 -18 17 0
8 8 3 21 -13z m81 -121 c-2 -8 1 -11 6 -8 5 3 16 -2 23 -12 12 -15 12 -16 -2
-5 -9 7 -18 10 -22 7 -3 -3 -10 4 -17 15 -6 12 -8 21 -4 21 4 0 -1 9 -11 20
-10 11 -22 17 -26 14 -5 -3 -6 2 -3 10 5 12 12 8 32 -16 15 -18 26 -38 24 -46z
m3556 35 c-12 -18 -37 -51 -55 -73 -18 -21 -55 -68 -83 -104 -76 -98 -182
-230 -184 -230 -1 0 -2 9 -2 19 0 11 3 18 7 15 8 -4 34 24 28 31 -3 2 -61 -42
-130 -99 -145 -118 -172 -137 -329 -238 -220 -139 -469 -256 -685 -320 -55
-16 -111 -34 -125 -40 -48 -22 6 -20 85 2 42 12 79 19 82 17 2 -3 -6 -8 -18
-12 -31 -10 -57 -35 -36 -35 8 0 20 -7 27 -15 7 -8 23 -15 35 -15 13 0 25 -5
27 -11 3 -8 14 -7 35 5 18 9 34 12 37 7 16 -24 -374 -179 -458 -182 -17 -1
-42 -5 -56 -9 -23 -7 -22 -8 10 -9 43 -1 187 37 300 79 138 51 142 52 222 54
l78 3 -36 -25 c-89 -60 -328 -153 -469 -183 -90 -19 -306 -16 -385 5 -154 41
-262 122 -320 240 -29 59 -34 78 -33 144 0 200 116 383 320 505 147 88 448
207 611 242 30 6 32 5 23 -12 -18 -34 -110 -258 -116 -283 -4 -17 -14 -26 -28
-27 -12 -1 -40 -9 -62 -17 -22 -9 -56 -18 -75 -20 -19 -3 -37 -5 -40 -6 -3 -1
-16 -2 -30 -1 -24 2 -24 1 -5 -11 14 -9 66 -13 175 -13 184 0 277 18 525 100
214 70 589 236 820 363 136 74 314 182 321 194 3 5 8 7 11 4 3 -2 -6 -20 -19
-39z m532 -41 c-16 -15 -159 -95 -148 -82 6 8 148 93 158 95 2 1 -2 -5 -10
-13z m-4076 -66 c29 -36 52 -58 59 -54 7 4 9 4 5 -1 -7 -7 22 -54 57 -91 5 -7
28 -35 50 -64 22 -29 63 -80 90 -114 28 -33 77 -99 110 -146 90 -130 377 -510
591 -781 46 -59 99 -127 116 -152 18 -25 107 -141 198 -258 205 -263 323 -419
375 -494 22 -32 55 -71 74 -89 18 -17 39 -43 47 -58 8 -16 18 -27 22 -25 4 1
50 -41 102 -94 64 -65 117 -109 164 -134 292 -162 584 -186 875 -73 153 59
457 200 996 463 132 64 299 143 370 175 190 85 235 105 395 183 80 38 215 102
300 142 85 40 263 126 395 190 277 136 352 170 492 231 167 72 441 206 544
267 115 68 183 132 229 218 31 57 35 72 34 139 0 57 -7 90 -27 140 -34 83 -28
89 8 8 18 -42 29 -87 32 -133 5 -62 2 -78 -24 -135 -36 -78 -121 -174 -206
-231 -62 -41 -370 -195 -652 -327 -82 -39 -226 -107 -320 -152 -319 -154 -563
-270 -570 -270 -1 0 -67 -31 -146 -69 -79 -37 -180 -85 -224 -106 -44 -21
-141 -67 -215 -103 -74 -35 -180 -86 -235 -112 -55 -26 -172 -82 -260 -125
-616 -298 -932 -435 -1055 -460 -267 -54 -557 1 -774 146 -68 45 -161 134
-198 189 -17 25 -17 25 -17 3 -1 -25 -16 -31 -24 -10 -3 8 -40 58 -84 113
-179 225 -274 355 -267 366 4 6 3 8 -3 5 -6 -4 -59 57 -119 136 -59 78 -127
167 -151 197 -23 30 -67 87 -95 126 -29 39 -116 153 -193 253 -190 247 -172
223 -339 457 -209 293 -247 345 -277 379 -15 17 -50 61 -79 99 -29 39 -65 86
-81 105 -45 57 -123 154 -138 174 -7 9 -11 17 -9 17 3 0 26 -27 52 -60z m5386
-52 c0 -5 -4 -8 -10 -8 -5 0 -10 -7 -10 -15 0 -21 -13 -19 -27 4 -9 15 -9 25
0 45 l12 26 17 -23 c10 -12 18 -25 18 -29z m-1495 13 c-49 -46 -630 -321 -677
-321 -7 0 23 15 67 34 136 57 385 174 500 235 114 62 125 67 110 52z m1225
-51 c0 -5 -4 -10 -10 -10 -5 0 -10 5 -10 10 0 6 5 10 10 10 6 0 10 -4 10 -10z
m-4565 -30 c-5 -8 -11 -8 -17 -2 -6 6 -7 16 -3 22 5 8 11 8 17 2 6 -6 7 -16 3
-22z m535 -99 c6 -16 20 -37 31 -47 10 -9 19 -21 19 -25 0 -15 -73 -1 -83 16
-6 12 -16 15 -34 10 -24 -6 -24 -5 9 34 18 23 36 41 39 41 4 0 12 -13 19 -29z
m2120 -84 c0 -7 -9 -13 -21 -14 -17 -2 -18 1 -9 13 15 17 30 18 30 1z m1789
-289 c34 -43 67 -78 72 -78 5 0 27 9 49 20 50 25 54 25 68 -4 10 -23 7 -26
-70 -66 -44 -23 -81 -40 -82 -38 -1 2 -41 53 -89 115 -48 61 -87 114 -87 117
0 3 12 12 28 20 31 17 23 23 111 -86z m-4139 27 c0 -8 -4 -15 -10 -15 -5 0
-10 7 -10 15 0 8 5 15 10 15 6 0 10 -7 10 -15z m3814 -108 c-58 -29 -63 -37
-39 -57 13 -11 23 -9 54 8 46 26 67 28 75 6 11 -28 6 -35 -40 -55 -46 -19 -46
-20 -29 -39 23 -26 41 -25 92 4 l41 24 22 -23 22 -24 -92 -46 c-51 -26 -96
-43 -100 -38 -23 27 -120 154 -143 187 l-26 39 92 42 92 42 17 -21 c17 -21 16
-22 -38 -49z m-269 -230 c14 -60 25 -115 25 -122 0 -7 -13 -18 -29 -25 -27
-11 -34 -9 -73 17 -24 16 -86 54 -138 83 -114 64 -108 59 -90 71 40 26 60 21
150 -35 50 -31 92 -56 94 -56 3 0 0 15 -4 33 -5 17 -16 60 -24 95 l-14 63 31
13 c39 16 37 19 72 -137z m2129 12 c-25 -28 -118 -82 -289 -167 -128 -64 -551
-262 -559 -262 -2 0 -82 -38 -177 -84 -96 -46 -268 -129 -384 -184 -115 -55
-320 -153 -455 -217 -135 -64 -290 -137 -345 -162 -109 -49 -388 -180 -585
-275 -668 -322 -855 -403 -994 -427 -77 -14 -236 -14 -312 0 -190 33 -356 112
-484 230 -51 46 -48 45 32 -16 49 -37 88 -64 88 -60 0 3 12 -2 28 -13 46 -32
195 -92 268 -107 169 -35 348 -28 486 19 41 13 162 65 269 114 107 49 217 100
244 112 28 13 185 87 350 166 165 78 332 156 370 174 39 18 135 64 215 102 80
39 249 119 375 178 127 59 316 148 420 198 105 49 300 142 435 205 135 63 308
145 385 182 77 37 174 83 215 102 41 20 113 54 160 76 47 22 88 40 93 39 4 -1
7 2 7 6 0 5 20 19 45 32 25 13 45 27 45 31 0 4 9 6 19 4 11 -2 25 3 32 11 6 8
14 14 17 14 3 0 -3 -9 -14 -21z m-4381 -56 c-7 -2 -19 -2 -25 0 -7 3 -2 5 12
5 14 0 19 -2 13 -5z m37 -3 c0 -5 -4 -10 -10 -10 -5 0 -10 5 -10 10 0 6 5 10
10 10 6 0 10 -4 10 -10z m1807 -182 c45 -26 84 -52 87 -57 3 -4 -10 -16 -29
-27 -32 -17 -35 -17 -53 -1 -24 22 -44 21 -95 -4 -62 -31 -68 -38 -57 -60 9
-16 4 -21 -28 -38 l-39 -20 -17 127 c-9 70 -19 137 -22 149 -3 18 2 26 28 36
31 13 36 12 88 -21 30 -19 92 -57 137 -84z m-1712 92 c13 -6 15 -9 5 -9 -8 0
-22 4 -30 9 -18 12 -2 12 25 0z m1125 -205 c32 -16 46 -51 36 -88 -5 -20 3
-27 62 -56 l67 -33 -40 -20 -39 -21 -47 27 c-46 26 -99 35 -99 17 0 -5 11 -23
25 -39 32 -38 31 -48 -4 -67 l-29 -15 -50 68 c-71 97 -112 159 -112 170 0 15
133 72 168 72 18 0 46 -7 62 -15z m-378 -149 c16 -22 16 -23 -18 -39 -19 -9
-34 -22 -34 -28 0 -7 25 -45 55 -86 72 -94 73 -97 35 -113 -17 -7 -32 -11 -33
-9 -2 3 -117 156 -134 178 -1 2 -21 -4 -43 -14 -39 -18 -41 -18 -55 1 -8 10
-15 22 -15 25 0 5 206 106 220 108 3 0 13 -10 22 -23z m1979 -589 c-12 -37
-47 -75 -58 -64 -3 4 -11 3 -18 -3 -18 -15 -224 -120 -318 -161 -87 -39 -124
-48 -112 -29 7 11 310 164 424 214 48 21 66 35 74 57 15 40 21 28 8 -14z
m-3260 -254 c13 -16 12 -17 -3 -4 -17 13 -22 21 -14 21 2 0 10 -8 17 -17z"/>
<path d="M845 4966 c10 -14 19 -26 22 -26 7 0 -17 39 -28 46 -6 3 -3 -5 6 -20z"/>
<path d="M970 4810 c0 -5 5 -10 11 -10 5 0 7 5 4 10 -3 6 -8 10 -11 10 -2 0
-4 -4 -4 -10z"/>
<path d="M5889 4099 c-19 -16 -20 -18 -4 -10 34 17 51 31 39 31 -7 0 -22 -9
-35 -21z"/>
<path d="M5815 4062 c-16 -8 -24 -17 -18 -19 7 -3 25 5 39 16 31 24 22 26 -21
3z"/>
<path d="M1540 4096 c0 -2 8 -10 18 -17 15 -13 16 -12 3 4 -13 16 -21 21 -21
13z"/>
<path d="M1737 3855 l17 -30 -22 19 c-12 11 -22 15 -22 9 0 -12 51 -57 68 -59
6 -1 12 2 12 7 0 5 -7 9 -16 9 -8 0 -13 4 -10 8 3 5 -6 21 -20 38 l-25 29 18
-30z"/>
<path d="M1790 3761 c0 -6 4 -13 10 -16 6 -3 7 1 4 9 -7 18 -14 21 -14 7z"/>
<path d="M4460 2126 c0 -2 7 -7 16 -10 8 -3 12 -2 9 4 -6 10 -25 14 -25 6z"/>
<path d="M6053 2061 c4 -18 7 -37 7 -42 0 -12 23 -11 56 1 30 12 33 9 -40 56
l-29 19 6 -34z"/>
<path d="M5520 1890 c-13 -8 -13 -13 0 -37 19 -35 40 -39 70 -15 33 27 20 62
-23 62 -18 0 -39 -5 -47 -10z"/>
<path d="M7360 7525 c0 -8 6 -12 14 -9 8 3 17 1 21 -5 8 -13 25 -14 25 -2 0 5
-13 14 -30 20 -24 8 -30 7 -30 -4z"/>
<path d="M5525 7441 c93 -19 121 -22 97 -11 -13 5 -49 12 -80 15 -48 3 -51 3
-17 -4z"/>
<path d="M7829 7132 c6 -2 9 -7 6 -12 -3 -4 3 -10 14 -13 10 -2 22 3 28 12 9
15 6 17 -25 17 -19 0 -30 -2 -23 -4z"/>
<path d="M7738 7123 c7 -3 16 -2 19 1 4 3 -2 6 -13 5 -11 0 -14 -3 -6 -6z"/>
<path d="M7837 7074 c-12 -12 3 -22 24 -17 16 4 17 8 7 14 -16 10 -23 11 -31
3z"/>
<path d="M4860 7046 c0 -2 7 -6 15 -10 8 -3 15 -1 15 4 0 6 -7 10 -15 10 -8 0
-15 -2 -15 -4z"/>
<path d="M7180 7031 c0 -6 4 -13 10 -16 6 -3 7 1 4 9 -7 18 -14 21 -14 7z"/>
<path d="M7906 7005 c-11 -8 -29 -15 -40 -16 -18 -1 -18 -2 4 -9 16 -5 19 -8
8 -9 -9 -1 -23 -10 -32 -22 -8 -12 -26 -22 -40 -23 -15 0 -21 -5 -16 -10 14
-14 50 -18 50 -6 0 5 8 6 17 3 13 -5 9 -9 -18 -19 -19 -7 -46 -13 -61 -13 -22
-1 -26 3 -21 17 5 14 3 15 -8 5 -7 -7 -27 -13 -43 -14 -26 0 -27 -2 -11 -8 19
-8 19 -8 -4 -20 -13 -7 -21 -9 -18 -3 4 5 -5 7 -20 4 l-27 -5 25 -10 c13 -5
19 -11 12 -14 -7 -2 -22 1 -34 7 -14 8 -25 8 -31 2 -19 -19 123 -35 259 -29
131 5 214 25 272 64 15 10 28 17 31 16 3 0 14 8 25 19 l20 21 -22 -12 c-18 -9
-22 -9 -17 3 3 9 -4 16 -23 21 -15 3 -30 10 -33 14 -6 9 -115 48 -155 55 -19
4 -37 0 -49 -9z m24 -10 c-7 -8 -17 -15 -22 -15 -11 0 14 29 26 30 5 0 3 -7
-4 -15z"/>
<path d="M8200 6961 c0 -7 -5 -9 -12 -5 -7 5 -8 3 -3 -5 5 -9 10 -10 18 -2 6
6 8 14 4 18 -4 3 -7 1 -7 -6z"/>
<path d="M8261 6958 c-2 -25 -58 -85 -105 -113 -22 -13 -77 -34 -121 -46 -166
-47 -469 -18 -618 59 -4 2 15 -32 42 -76 74 -118 130 -226 178 -337 24 -56 48
-99 55 -99 17 2 205 39 327 64 52 11 115 30 140 43 56 29 114 101 105 129 -3
10 0 58 6 106 8 60 8 118 2 187 -5 55 -10 92 -11 83z"/>
<path d="M2177 6953 c-13 -12 -7 -25 9 -19 8 3 33 -3 55 -14 53 -27 50 -18 -5
14 -49 29 -50 29 -59 19z"/>
<path d="M2182 6893 c-6 -2 -9 -10 -5 -16 4 -7 0 -8 -13 -3 -14 5 -16 4 -8 -4
7 -7 18 -7 35 -1 14 6 18 10 9 11 -10 1 -9 4 5 10 21 9 0 12 -23 3z"/>
<path d="M7452 6875 c10 -11 68 -23 68 -15 0 4 -7 11 -16 14 -19 7 -59 8 -52
1z"/>
<path d="M7538 6848 c6 -6 18 -8 28 -6 14 3 12 5 -9 10 -19 3 -25 2 -19 -4z"/>
<path d="M4573 6763 c15 -2 37 -2 50 0 12 2 0 4 -28 4 -27 0 -38 -2 -22 -4z"/>
<path d="M7336 6740 c3 -14 12 -38 20 -55 7 -16 24 -70 37 -120 18 -66 26 -83
29 -65 3 14 6 -1 7 -32 1 -44 5 -58 16 -58 15 0 22 50 8 64 -4 3 -8 13 -9 21
-4 25 -27 90 -39 110 -7 11 -16 37 -19 57 -4 21 -12 41 -19 45 -7 5 -18 19
-25 33 l-12 25 6 -25z"/>
<path d="M4786 6721 c-3 -5 1 -14 9 -21 10 -9 15 -9 15 -1 0 6 -5 11 -11 11
-5 0 -7 5 -4 10 3 6 4 10 1 10 -3 0 -7 -4 -10 -9z"/>
<path d="M8602 6692 c-17 -17 -32 -29 -34 -27 -2 2 -9 -3 -16 -11 -7 -8 -10
-14 -7 -14 4 0 0 -7 -9 -15 -8 -9 -19 -15 -23 -14 -15 4 -43 -13 -37 -22 3 -5
-2 -6 -10 -3 -19 7 -22 -12 -3 -20 6 -3 -1 -4 -18 -3 -19 1 -29 -2 -28 -10 3
-14 -65 -73 -84 -73 -6 0 -15 -4 -18 -10 -4 -6 13 -10 44 -10 46 0 51 2 51 23
0 23 11 32 109 88 28 16 61 48 85 83 45 63 43 82 -2 38z"/>
<path d="M4821 6668 c-1 -39 4 -44 28 -29 12 8 12 14 4 33 -8 15 -12 18 -13 8
-1 -10 -4 -9 -10 5 -7 16 -9 13 -9 -17z"/>
<path d="M4765 6680 c-3 -6 1 -7 9 -4 18 7 21 14 7 14 -6 0 -13 -4 -16 -10z"/>
<path d="M3146 6536 c-9 -14 -16 -33 -16 -43 1 -10 9 -1 20 21 23 45 20 58 -4
22z"/>
<path d="M2625 6421 c-3 -5 -2 -12 3 -15 5 -3 9 1 9 9 0 17 -3 19 -12 6z"/>
<path d="M7465 6380 c3 -5 8 -10 11 -10 2 0 4 5 4 10 0 6 -5 10 -11 10 -5 0
-7 -4 -4 -10z"/>
<path d="M7456 6323 c-6 -14 -5 -15 5 -6 7 7 10 15 7 18 -3 3 -9 -2 -12 -12z"/>
<path d="M3791 6294 c0 -11 3 -14 6 -6 3 7 2 16 -1 19 -3 4 -6 -2 -5 -13z"/>
<path d="M7281 6074 c0 -11 3 -14 6 -6 3 7 2 16 -1 19 -3 4 -6 -2 -5 -13z"/>
<path d="M7256 5974 c-4 -14 -5 -28 -3 -31 3 -2 8 8 11 23 4 14 5 28 3 31 -3
2 -8 -8 -11 -23z"/>
<path d="M5188 5983 c7 -3 16 -2 19 1 4 3 -2 6 -13 5 -11 0 -14 -3 -6 -6z"/>
<path d="M5296 5935 c4 -8 12 -15 20 -15 8 0 11 6 8 15 -4 8 -12 15 -20 15 -8
0 -11 -6 -8 -15z"/>
<path d="M8700 5896 c0 -33 -85 -176 -140 -236 -59 -65 -85 -108 -32 -54 32
34 72 58 72 45 0 -5 -6 -11 -12 -14 -20 -7 -2 -19 19 -13 11 3 25 22 32 41 13
38 37 49 26 13 -4 -13 -20 -47 -36 -75 -26 -48 -43 -100 -20 -64 5 8 14 10 22
6 9 -6 11 -4 6 7 -4 11 1 18 14 21 15 4 19 2 15 -9 -3 -8 -9 -21 -12 -29 -3
-8 -1 -15 5 -15 6 0 11 7 11 15 0 8 4 15 9 15 5 0 12 21 15 48 9 74 18 312 12
312 -3 0 -6 -6 -6 -14z"/>
<path d="M5401 5887 c2 -1 13 -9 24 -17 19 -14 19 -14 6 3 -7 9 -18 17 -24 17
-6 0 -8 -1 -6 -3z"/>
<path d="M7261 5864 c0 -11 3 -14 6 -6 3 7 2 16 -1 19 -3 4 -6 -2 -5 -13z"/>
<path d="M7842 5873 l-33 -4 8 -52 c5 -29 8 -158 8 -288 -1 -193 2 -236 12
-232 9 3 10 10 4 17 -4 6 -5 20 0 31 4 11 8 37 8 58 1 21 8 60 17 87 12 37 21
49 40 53 13 2 21 1 19 -4 -3 -4 10 -19 27 -34 18 -14 41 -33 51 -41 16 -13 17
-18 5 -32 -14 -18 -16 -19 37 21 5 4 21 17 35 30 14 12 43 36 64 54 33 27 37
34 27 47 -11 13 -7 22 22 58 19 24 46 63 59 88 26 51 48 60 76 32 15 -15 23
-17 31 -9 70 70 -272 150 -517 120z m285 -110 c9 -19 10 -30 2 -39 -6 -7 -7
-19 -4 -26 4 -7 -6 2 -23 20 -30 31 -31 33 -14 52 21 26 25 25 39 -7z m-110
-188 c-2 -5 -13 -11 -25 -13 -25 -4 -31 25 -10 46 10 10 15 9 26 -5 7 -9 11
-22 9 -28z"/>
<path d="M2686 5834 c-5 -14 -4 -15 9 -4 11 9 15 9 15 1 0 -7 5 -9 11 -5 8 4
7 9 -2 15 -20 12 -26 11 -33 -7z"/>
<path d="M5980 5820 c8 -5 22 -9 30 -9 10 0 8 3 -5 9 -27 12 -43 12 -25 0z"/>
<path d="M5765 5810 c-3 -5 -1 -10 4 -10 6 0 11 5 11 10 0 6 -2 10 -4 10 -3 0
-8 -4 -11 -10z"/>
<path d="M7281 5704 c0 -11 3 -14 6 -6 3 7 2 16 -1 19 -3 4 -6 -2 -5 -13z"/>
<path d="M8210 5611 c0 -8 -8 -11 -19 -8 -14 3 -18 1 -14 -9 3 -8 9 -14 13
-14 12 0 34 30 26 37 -3 3 -6 1 -6 -6z"/>
<path d="M8580 5520 c0 -5 5 -10 11 -10 5 0 7 5 4 10 -3 6 -8 10 -11 10 -2 0
-4 -4 -4 -10z"/>
<path d="M8762 4940 c-16 -15 -22 -32 -22 -65 0 -46 16 -69 26 -38 15 44 29
73 36 73 5 0 8 11 8 25 0 30 -19 32 -48 5z m28 -20 c-8 -5 -22 -9 -30 -9 -10
0 -8 3 5 9 27 12 43 12 25 0z"/>
<path d="M2452 4545 c-45 -64 -72 -150 -82 -254 -7 -79 -7 -108 5 -140 7 -21
11 -41 9 -44 -3 -3 -1 -13 4 -24 6 -10 15 -31 22 -48 12 -33 70 -106 70 -89 0
6 -9 19 -20 29 -11 10 -20 25 -20 34 0 13 2 13 9 2 7 -11 11 -10 21 5 10 16
11 16 6 2 -7 -23 -5 -23 55 7 27 14 55 37 61 50 6 14 19 25 30 25 22 0 22 -3
-2 48 -21 43 -50 144 -50 174 0 14 8 18 35 18 19 0 35 4 35 9 0 5 2 16 5 23 4
11 -3 13 -30 10 -26 -3 -35 -1 -35 11 0 8 -3 24 -6 34 -4 14 -1 13 12 -4 27
-38 36 -26 12 16 -12 22 -26 35 -29 29 -4 -6 -12 5 -18 25 -7 19 -18 38 -26
41 -8 3 -15 13 -15 22 0 10 -5 14 -14 11 -8 -3 -16 -2 -18 3 -2 5 -14 -6 -26
-25z"/>
<path d="M5170 4490 l-25 -8 28 -1 c15 -1 27 4 27 9 0 6 -1 10 -2 9 -2 -1 -14
-5 -28 -9z"/>
<path d="M2270 4434 c0 -85 24 -185 64 -267 32 -66 34 -69 29 -32 -3 22 -13
48 -21 58 -11 12 -15 37 -14 85 1 46 -1 62 -8 52 -8 -13 -10 -13 -10 1 0 9 -6
22 -13 28 -8 6 -15 34 -16 68 -2 76 -11 82 -11 7z"/>
<path d="M2606 4460 c9 -34 34 -70 34 -50 0 8 -9 29 -21 45 -19 28 -20 28 -13
5z"/>
<path d="M2592 4295 c0 -16 2 -22 5 -12 2 9 2 23 0 30 -3 6 -5 -1 -5 -18z"/>
<path d="M2341 4224 c0 -11 3 -14 6 -6 3 7 2 16 -1 19 -3 4 -6 -2 -5 -13z"/>
<path d="M6240 4150 c0 -5 5 -10 10 -10 6 0 10 5 10 10 0 6 -4 10 -10 10 -5 0
-10 -4 -10 -10z"/>
<path d="M6240 4059 c0 -5 5 -7 10 -4 6 3 10 8 10 11 0 2 -4 4 -10 4 -5 0 -10
-5 -10 -11z"/>
<path d="M6200 4050 c0 -5 5 -10 10 -10 6 0 10 5 10 10 0 6 -4 10 -10 10 -5 0
-10 -4 -10 -10z"/>
<path d="M6246 4034 c-11 -8 -16 -14 -10 -14 13 0 39 18 34 24 -3 2 -14 -2
-24 -10z"/>
<path d="M3149 3962 c12 -9 12 -13 -2 -27 -20 -20 -20 -20 -3 -34 11 -9 16 -9
22 0 4 8 3 9 -4 5 -7 -4 -12 -1 -12 8 0 9 5 16 10 16 6 0 10 -5 10 -11 0 -5 4
-8 9 -4 5 3 13 0 17 -6 4 -8 3 -9 -4 -5 -15 9 -34 -28 -21 -41 9 -9 16 -29 18
-55 2 -15 17 -8 98 45 l81 53 -63 18 c-35 10 -69 15 -76 10 -7 -4 -10 -3 -6 3
4 6 -5 14 -21 17 -15 4 -36 9 -47 12 -15 4 -17 3 -6 -4z"/>
<path d="M7320 3620 c0 -5 9 -14 20 -20 11 -6 18 -15 15 -20 -3 -6 0 -7 8 -4
12 4 10 10 -10 30 -26 26 -33 29 -33 14z"/>
</g>
</svg>
